<?xml version="1.0" encoding="UTF-8" standalone="no"?>
<!-- Created with Inkscape (http://www.inkscape.org/) -->

<svg
   width="188.28476mm"
   height="143.25467mm"
   viewBox="0 0 188.28476 143.25467"
   version="1.1"
   id="svg5"
   inkscape:export-filename="/home/degoede/SEA/CASHEW/pubs/figs/schematic_png.png"
   inkscape:export-xdpi="96"
   inkscape:export-ydpi="96"
   inkscape:version="1.1.2 (0a00cf5339, 2022-02-04)"
   sodipodi:docname="schematic.svg"
   xmlns:inkscape="http://www.inkscape.org/namespaces/inkscape"
   xmlns:sodipodi="http://sodipodi.sourceforge.net/DTD/sodipodi-0.dtd"
   xmlns="http://www.w3.org/2000/svg"
   xmlns:svg="http://www.w3.org/2000/svg">
  <sodipodi:namedview
     id="namedview7"
     pagecolor="#ffffff"
     bordercolor="#666666"
     borderopacity="1.0"
     inkscape:pageshadow="2"
     inkscape:pageopacity="0.0"
     inkscape:pagecheckerboard="0"
     inkscape:document-units="mm"
     showgrid="false"
     inkscape:zoom="0.98471943"
     inkscape:cx="528.0692"
     inkscape:cy="242.70873"
     inkscape:window-width="1920"
     inkscape:window-height="947"
     inkscape:window-x="0"
     inkscape:window-y="32"
     inkscape:window-maximized="1"
     inkscape:current-layer="layer1" />
  <defs
     id="defs2">
    <marker
       style="overflow:visible"
       id="marker15752"
       refX="0"
       refY="0"
       orient="auto"
       inkscape:stockid="Arrow1Send"
       inkscape:isstock="true">
      <path
         transform="matrix(-0.2,0,0,-0.2,-1.2,0)"
         style="fill:context-stroke;fill-rule:evenodd;stroke:context-stroke;stroke-width:1pt"
         d="M 0,0 5,-5 -12.5,0 5,5 Z"
         id="path15750" />
    </marker>
    <marker
       style="overflow:visible"
       id="Arrow1Send"
       refX="0"
       refY="0"
       orient="auto"
       inkscape:stockid="Arrow1Send"
       inkscape:isstock="true">
      <path
         transform="matrix(-0.2,0,0,-0.2,-1.2,0)"
         style="fill:context-stroke;fill-rule:evenodd;stroke:context-stroke;stroke-width:1pt"
         d="M 0,0 5,-5 -12.5,0 5,5 Z"
         id="path15140" />
    </marker>
    <marker
       style="overflow:visible"
       id="Arrow2Mend"
       refX="0"
       refY="0"
       orient="auto"
       inkscape:stockid="Arrow2Mend"
       inkscape:isstock="true">
      <path
         transform="scale(-0.6)"
         d="M 8.7185878,4.0337352 -2.2072895,0.01601326 8.7185884,-4.0017078 c -1.7454984,2.3720609 -1.7354408,5.6174519 -6e-7,8.035443 z"
         style="fill:context-stroke;fill-rule:evenodd;stroke:context-stroke;stroke-width:0.625;stroke-linejoin:round"
         id="path15152" />
    </marker>
    <marker
       style="overflow:visible"
       id="Arrow1Mend"
       refX="0"
       refY="0"
       orient="auto"
       inkscape:stockid="Arrow1Mend"
       inkscape:isstock="true">
      <path
         transform="matrix(-0.4,0,0,-0.4,-4,0)"
         style="fill:context-stroke;fill-rule:evenodd;stroke:context-stroke;stroke-width:1pt"
         d="M 0,0 5,-5 -12.5,0 5,5 Z"
         id="path15134" />
    </marker>
    <marker
       style="overflow:visible"
       id="marker15752-9"
       refX="0"
       refY="0"
       orient="auto"
       inkscape:stockid="Arrow1Send"
       inkscape:isstock="true">
      <path
         transform="matrix(-0.2,0,0,-0.2,-1.2,0)"
         style="fill:context-stroke;fill-rule:evenodd;stroke:context-stroke;stroke-width:1pt"
         d="M 0,0 5,-5 -12.5,0 5,5 Z"
         id="path15750-1" />
    </marker>
    <filter
       inkscape:label="Fast Crop"
       inkscape:auto-region="false"
       inkscape:menu="Fill and Transparency"
       inkscape:menu-tooltip="Does not filter but adds a filter region"
       style="color-interpolation-filters:sRGB"
       id="filter70441">
      <feColorMatrix
         type="saturate"
         values="1"
         id="feColorMatrix70439"
         result="fbSourceGraphic" />
      <feColorMatrix
         result="fbSourceGraphicAlpha"
         in="fbSourceGraphic"
         values="0 0 0 -1 0 0 0 0 -1 0 0 0 0 -1 0 0 0 0 1 0"
         id="feColorMatrix70461" />
      <feColorMatrix
         id="feColorMatrix70463"
         type="saturate"
         values="1"
         in="fbSourceGraphic"
         result="fbSourceGraphic" />
      <feColorMatrix
         result="fbSourceGraphicAlpha"
         in="fbSourceGraphic"
         values="0 0 0 -1 0 0 0 0 -1 0 0 0 0 -1 0 0 0 0 1 0"
         id="feColorMatrix115964" />
      <feColorMatrix
         id="feColorMatrix115966"
         type="saturate"
         values="1"
         in="fbSourceGraphic" />
    </filter>
    <marker
       style="overflow:visible"
       id="marker15752-0"
       refX="0"
       refY="0"
       orient="auto"
       inkscape:stockid="Arrow1Send"
       inkscape:isstock="true">
      <path
         transform="matrix(-0.2,0,0,-0.2,-1.2,0)"
         style="fill:context-stroke;fill-rule:evenodd;stroke:context-stroke;stroke-width:1pt"
         d="M 0,0 5,-5 -12.5,0 5,5 Z"
         id="path15750-2" />
    </marker>
    <clipPath
       clipPathUnits="userSpaceOnUse"
       id="clipPath116070">
      <path
         id="path116072"
         style="fill:#ff0000;fill-opacity:1;fill-rule:nonzero;stroke:none"
         d="M -467.18734,-202.25114 V -30.57927 H 640.62517 c 10e-4,-0.47248 0.004,-1.16381 0.004,-1.27734 -0.003,-0.0748 -0.0154,-0.37803 -0.008,-0.19922 -10e-4,-0.39954 -0.003,-0.54897 -0.004,-0.75781 -0.0495,-0.53582 -0.0978,-1.07107 -0.14063,-1.60742 -0.64041,-1.66968 -1.14811,-3.43461 -1.60547,-5.04493 -0.26385,-0.92902 -0.4831,-1.86961 -0.72461,-2.80468 -1.76878,-8.99172 -2.23826,-18.12433 -3.19531,-27.22852 -0.86336,-9.996691 -1.61655,-19.953701 -1.93555,-29.986331 -0.0952,-3.031699 0.0423,-6.066779 -0.008,-9.099609 -0.014,-0.85772 -0.0676,-1.7151 -0.10156,-2.57226 -0.0578,-1.63134 -0.20602,-5.05017 -0.17578,-6.77735 0.13058,-7.61184 1.0655,-15.17972 1.27148,-22.78906 0.46698,-6.10319 0.78757,-9.81559 1.95703,-14.7832 -2.07814,1.13687 8.51734,-22.07495 1.08399,-12.54297 -0.0344,-4.92863 0.0658,-9.85932 -0.10352,-14.78516 -0.15171,-4.4124 -0.55377,-8.81383 -0.85351,-13.21875 -0.65041,-0.99687 -2.66466,-4.00922 -3.05079,-4.60742 -0.33503,-0.51911 -0.62924,-1.06378 -0.95312,-1.58984 z m 1204.15431,0 c -0.0655,0.1617 -0.11028,0.31403 -0.17774,0.47656 -0.58952,1.42042 -1.18198,2.83997 -1.76953,4.26172 1.19953,-1.63828 2.42344,-3.35742 3.54297,-4.73828 z m 5.6289,0 c 0.67204,4.76457 -0.37261,9.55026 -1.74023,14.35742 0.58191,0.0634 1.16447,0.12516 1.74609,0.1875 1.45438,-4.85175 2.96773,-9.69038 4.41016,-14.54492 z m 26.46094,0 c 3.02445,0.8724 6.04562,1.7563 9.07617,2.60742 15.98842,4.49031 18.22921,4.71068 35.17578,10.21289 1.03605,0.33638 1.97422,0.92335 2.96094,1.38476 -0.0547,0.55338 -0.0976,1.10818 -0.14844,1.66211 4.76741,0.81532 8.81255,1.67349 9.50196,1.83203 6.41404,1.47508 12.67382,3.55482 19.00586,5.34961 9.82432,2.78468 12.78368,3.60917 15.60156,4.40821 1.18349,-0.24222 2.36968,-0.46103 3.56836,-0.61133 3.33853,-0.41862 6.72847,-0.19056 10.09179,-0.28516 1.05992,1.36623 2.20255,2.6867 3.38086,3.98828 3.97376,0.91718 8.15744,2.51128 10.97461,5.15625 2.06468,1.93849 4.77778,3.70991 5.54688,6.43555 0.0677,0.24006 0.11742,0.48384 0.17187,0.72656 0.101,0.15551 0.19897,0.31334 0.30274,0.4668 0.31294,5.679 3.03672,22.32315 0.9375,17.03711 -2.15759,-5.43296 0.0359,-11.81544 -1.24024,-17.50391 -0.62358,-0.96016 -1.2134,-1.94578 -1.93164,-2.83593 -0.0941,-0.11657 -4.99767,-5.2456 -5.35937,-4.3711 -0.47798,1.15608 -0.92327,2.32369 -1.35547,3.4961 3.46896,3.87285 6.55557,7.95486 8.26367,12.78906 0.96166,2.72169 -2.08308,7.47262 -5.59375,11.24219 -0.55835,1.31759 -1.72234,2.2991 -3.23828,3.08593 -1.09235,0.91024 -2.12632,1.63667 -2.98633,2.07422 -1.87559,0.95424 -4.21056,2.93573 -6.25781,3.60352 -0.30435,0.90099 -0.61522,1.79802 -0.94141,2.6914 -0.23372,0.64013 -1.36698,-0.0953 -2.02734,-0.26367 -3.35433,-0.85549 -6.66672,-1.86858 -10,-2.80273 -1.70102,-0.51657 -2.38979,-0.72521 -3.55078,-1.07813 -4.88724,1.1324 -9.77062,2.28342 -14.62891,3.53321 -19.30639,4.96655 -20.33313,6.59729 -42.48437,9.54687 -2.58305,0.34395 -5.20411,-0.26064 -7.80664,-0.39062 -8.03758,-4.86776 -16.39046,-9.25285 -24.1504,-14.54688 -5.00589,6.1084 -11.05196,11.55036 -16.08007,17.64453 0.58323,0.12858 2.25773,-0.0322 1.69726,0.0684 -0.009,0.002 -0.9441,0.0125 -1.77539,0.0234 -0.0114,0.0139 -0.0238,0.0271 -0.0352,0.041 -0.0545,-0.0136 -0.10947,-0.0256 -0.16406,-0.0391 -1.09267,0.0143 -2.14499,0.0296 -2.27344,0.0312 -3.22866,0.0311 -6.45704,0.006 -9.68554,-0.004 3.30652,4.49394 5.98274,7.90362 13.16797,16.880859 -8.6578,-1.815609 -32.31065,-11.618559 -25.97461,-5.445319 7.86992,7.667759 21.29661,5.858679 31.22656,10.562499 2.6352,1.2483 3.82632,4.41692 5.47461,6.82227 0.56617,0.82621 8.38518,12.99528 8.25781,15.99414 -0.0443,1.042001 -0.14266,2.078351 -0.26562,3.111331 6.08096,8.61135 16.43788,23.31143 26.25195,37.33984 h 151.5508 v -171.67167 z m 115.69336,66.27343 c 1.05716,-0.88091 2.1676,-1.9363 3.23828,-3.08593 0.26578,-0.6272 0.40031,-1.32694 0.36133,-2.12305 -0.25794,-5.26729 -2.40606,-10.10776 -5.46485,-14.5957 -2.27299,7.46537 -4.08638,15.09595 -6.42382,22.54492 2.95682,-0.80592 6.01125,-1.55796 8.28906,-2.74024 z m -76.125,-53.20898 c -0.32555,-0.0189 -0.60135,0.0305 -0.78906,0.20117 0.87075,0.0602 1.74112,0.12139 2.61132,0.18945 0.0568,0.004 0.16515,0.008 0.25586,0.0117 -0.67065,-0.0977 -1.46029,-0.36656 -2.07812,-0.40234 z m 7.16992,10.24023 c 0.0501,-0.68321 -0.22767,2.06772 -0.71484,6.17383 -0.22394,3.25594 -0.45287,6.51166 -0.74414,9.75781 0.0416,-0.0126 0.0834,-0.0245 0.125,-0.0371 0.81396,-9.82701 1.28254,-15.19306 1.33398,-15.89453 z m -6.7168,34.4668 c -0.0613,0.0645 -0.12546,0.12585 -0.18945,0.1875 0.0824,0.959 0.17093,1.91746 0.33984,2.86328 0.50336,2.81866 0.21086,-0.61203 -0.15039,-3.05078 z m 62.64844,8.52344 c -0.15727,0.0295 -0.36267,0.11933 -0.625,0.24804 0.48397,0.52681 0.97417,1.06743 1.47266,1.63282 -0.27683,-1.48923 -0.33881,-1.97625 -0.84766,-1.88086 z m -3.04297,1.41015 c -0.11601,0.0502 -0.22541,0.0987 -0.34961,0.15039 -0.34806,0.99868 -0.71282,1.99233 -1.09179,2.98047 0.95488,0.29545 1.87276,0.48131 2.68945,0.52149 0.51192,-0.28611 1.08108,-0.54082 1.67187,-0.78321 -1.02999,-1.0036 -1.97135,-1.93367 -2.91992,-2.86914 z m -131.90039,7.95703 c -0.002,0.009 -0.006,0.0179 -0.008,0.0273 0.69493,0.66321 1.94284,1.70409 2.04687,1.79493 -0.71046,-0.58901 -1.3853,-1.19889 -2.03906,-1.82227 z m 5.22266,4.57227 c 0.0499,0.0684 0.10469,0.1364 0.15039,0.20508 0.0121,0.0178 0.43736,0.21154 0.35156,0.14453 -0.16064,-0.12543 -0.33283,-0.23496 -0.50195,-0.34961 z m 12.44336,36.464849 c -4.01527,0.65674 -13.02613,8.31576 -18.04102,10.37304 -0.16285,1.52075 -0.33675,3.04061 -0.50781,4.560551 5.89359,1.00233 10.55269,1.77013 13.09961,2.16602 3.92302,-4.502351 7.13256,-9.213691 7.4668,-14.955081 0.105,-1.80378 -0.67916,-2.36345 -2.01758,-2.14453 z m -5.44922,17.099611 c -0.0801,0.0919 -0.16549,0.1817 -0.24609,0.27343 4.10183,0.28592 5.77838,0.58648 0.24609,-0.27343 z m -0.24609,0.27343 c -3.4157,-0.23809 -8.38997,-0.43664 -13.12891,0.0234 -0.38663,3.43056 -0.75726,6.86142 -1.07422,10.29883 0.0803,0.199 0.16982,0.39468 0.24805,0.59375 0.0397,0.10084 -0.32624,0.17426 -0.31641,0.0664 0.0198,-0.22039 0.048,-0.43983 0.0684,-0.66016 -0.44188,-1.09508 -0.91437,-2.18481 -1.57031,-3.16211 -1.32862,-1.97948 -6.64054,-4.63681 -4.45703,-5.59375 1.88587,-0.8265 4.41577,-1.28213 7.10156,-1.54297 0.0925,-0.82086 0.18301,-1.64201 0.27539,-2.46289 -3.91166,-0.665261 -7.99232,-1.360541 -13.67969,-2.376951 -1.51188,-1.90018 -1.58838,-2.02811 -2.72265,-3.44922 0.12934,1.06241 0.23826,2.12742 0.33593,3.19336 0.063,0.29992 0.13208,0.66597 0.1875,0.8789 0.57831,2.222421 0.65228,3.859671 0.95313,6.310551 0.007,2.95163 0.23832,4.81096 0.2207,8.66211 0.12308,0.51194 0.23794,1.02587 0.33594,1.54297 0.14785,0.77929 0.0339,3.41558 0.004,4.34375 -0.0153,0.3325 -0.0172,0.26483 -0.0293,0.50391 0.16403,8.59837 -1.56408,15.40082 -4.38086,20.42968 h 32.79297 c -3.1714,-4.81055 -6.32685,-9.63133 -9.63086,-14.35156 -1.47545,-2.10789 -6.31175,-3.22585 -5.31446,-5.59766 2.80078,-6.66052 8.81701,-12.00424 13.78126,-17.65039 z m 18.58984,-8.537111 c -0.0292,0.0151 -0.008,0.0787 0.0801,0.20508 0.34733,0.496 1.65554,2.34582 2.16015,3.0625 0.0234,-0.0374 0.053,-0.0719 0.0762,-0.10937 0.56816,-0.91862 -2.11179,-3.26366 -2.3164,-3.15821 z m -88.81055,8.921881 c -0.50143,0.15811 -1.00541,0.29395 -1.50781,0.44336 0.0177,0.17909 0.0374,0.35798 0.0547,0.53711 0.49863,5.15309 0.51921,10.91395 1.81445,15.96289 0.0571,0.16748 0.11594,0.33613 0.17188,0.5039 0.20783,0.62257 0.87627,2.47367 0.63476,1.86329 -0.0237,-0.06 -5.87153,-15.66871 -3.32031,-5.7461 1.0046,3.90715 2.69074,7.6 4.21875,11.3418 -0.39326,-2.32369 -0.64583,-4.81613 -0.71875,-7.49805 -0.004,-0.15162 0.0669,-3.89579 0.0488,-2.65234 -0.16385,-1.35884 -0.23357,-2.73257 -0.37891,-4.09375 -0.0113,-0.1005 0.008,-0.20175 0.0117,-0.30274 0.0284,-1.85517 -0.12343,-3.66581 -0.1543,-5.52148 -0.0263,-0.14893 -0.0408,-0.26916 -0.0137,-0.28516 0.004,-0.002 0.006,1.1e-4 0.01,-0.002 -0.002,-0.22219 -0.0101,-0.44212 -0.008,-0.66602 0.004,-0.30864 0.0268,0.14484 0.0527,0.65625 0.10313,-0.0312 0.1766,0.0284 0.23047,0.14844 -0.38223,-1.56347 -0.76432,-3.12611 -1.14649,-4.68945 z m 40.9668,3.14062 c -0.0144,0.0199 -0.0124,0.10633 0.0137,0.27344 0.33583,2.1558 0.99371,4.24672 1.53125,6.36328 -0.0346,-0.84455 -0.078,-1.68842 -0.24023,-2.51562 -0.22786,-1.16176 -1.20379,-4.26013 -1.30469,-4.1211 z m -40.01563,2.04297 c 0.003,0.0455 0.005,0.12612 0.008,0.16211 0.41219,1.32926 0.15538,0.51614 -0.008,-0.16211 z m -37.47656,12.06641 c -0.49222,0.26471 -1.47321,7.91649 -2.13476,10.74414 0.18324,0.46332 0.37675,0.92335 0.57226,1.38281 0.37824,-1.73975 0.94811,-4.88091 1.7793,-11.43555 -0.0526,-0.53516 -0.12565,-0.74042 -0.2168,-0.6914 z m 39.77344,12.72266 c 0.2006,2.20878 0.33304,4.06504 0.38867,5.08007 0.0254,0.11266 0.048,0.21725 0.0723,0.32813 3e-5,-0.16541 0.002,-0.26528 0.002,-0.51758 -0.002,-0.14458 -3.8e-4,-0.28893 -0.004,-0.43359 8.9e-4,0.0368 0.003,0.0747 0.004,0.11132 -5.7e-4,0.1921 1.9e-4,0.16518 0,0.32227 0.003,0.18104 0.002,0.36201 0.004,0.54297 0.12,0.55015 0.21106,1.03293 0.28125,1.46484 0.0114,0.0517 0.0259,0.10253 0.0371,0.1543 0.0134,0.0623 0.0127,0.12703 0.0254,0.18945 h 2.27734 c -1.0996,-1.88176 -2.07274,-3.98738 -2.8457,-6.3789 0.003,0.0169 0.006,0.0339 0.01,0.0508 0.0151,0.40689 0.0731,1.62732 0.0508,1.2207 -0.0353,-0.63415 -0.0432,-0.89331 -0.0605,-1.27148 v -0.002 c -4.6e-4,-0.001 -0.002,-0.002 -0.002,-0.004 -0.0885,-0.2741 -0.15656,-0.57664 -0.24023,-0.85742 z m 0.74805,6.89843 c -0.0883,-0.40062 -0.17986,-0.79917 -0.2793,-1.19726 0.004,0.51352 0.007,1.02719 0.01,1.54101 h 0.29883 c -0.0168,-0.13541 -0.003,-0.18301 -0.0293,-0.34375 z m -0.2793,-1.19726 c -7.5e-4,-0.0892 -8.2e-4,-0.1784 -0.002,-0.26758 -0.002,-0.009 -0.004,-0.0168 -0.006,-0.0254 -2e-5,0.083 10e-5,0.19784 0,0.25976 0.003,0.011 0.005,0.0222 0.008,0.0332 z m -0.0801,-0.6211 c -0.50401,-2.23672 -1.19648,-4.71506 -0.96875,-3.61523 0.2801,1.3529 0.6551,2.68576 0.99414,4.02539 -0.005,-0.0902 -0.0196,-0.30416 -0.0254,-0.41016 z M 640.49038,-34.382 c 0.0157,0.14906 0.0202,0.22691 0.0449,0.33789 0.0194,0.0868 0.0617,0.25563 0.0938,0.38867 0.002,-0.0595 0.005,-0.14323 0.008,-0.21289 -0.0331,-0.14296 -0.0609,-0.25072 -0.0918,-0.375 -0.0181,-0.0464 -0.0368,-0.0921 -0.0547,-0.13867 z" />
    </clipPath>
  </defs>
  <g
     inkscape:label="Layer 1"
     inkscape:groupmode="layer"
     id="layer1"
     transform="translate(24.382149,-71.74072)">
    <path
       id="path1359"
       style="fill:#0072b2;fill-opacity:1;stroke-width:1.37991;filter:url(#filter70441)"
       d="m 52.171875,-187.85547 c -15.132984,-0.56036 -33.070502,1.53406 -43.9902344,5.58594 -27.4991356,10.20391 -40.8684206,21.74599 -69.7480466,60.2168 -8.490477,11.3102 -18.677109,20.1445 -29.84375,26.527339 0.05606,0.538894 0.119462,1.076832 0.179687,1.615235 0.10642,6.144185 -0.419824,12.236965 -0.302734,18.380859 0.115767,3.819205 0.04423,7.640436 0.03516,11.460938 0.007,2.182019 0.0066,4.39717 0.0059,6.753906 -2.49e-4,0.567712 1.25e-4,1.135416 0,1.703125 19.035788,-8.962559 36.057861,-23.27956 49.361329,-42.125 11.540499,-16.348062 15.858895,-21.477482 24.095703,-28.619142 30.75273,-26.6638 72.407106,-31.50484 107.671875,-12.51172 13.563106,7.30494 25.002186,17.67147 35.160166,31.86328 24.01139,33.546801 45.92441,50.663971 75.05663,58.62891 14.76657,4.037329 41.25291,4.037329 56.01953,0 29.13222,-7.964939 51.0432,-25.082109 75.05468,-58.62891 10.15798,-14.19181 21.5971,-24.55834 35.16017,-31.86328 35.26474,-18.99312 76.91913,-14.15208 107.67187,12.51172 8.23681,7.14166 12.55717,12.27108 24.09765,28.619142 20.71994,29.351546 49.51686,47.468891 82.46485,51.882812 43.22078,5.790274 84.39332,-14.573161 112.77734,-55.777344 10.10968,-14.67599 16.03079,-20.98442 28.29883,-30.14844 30.6082,-22.86409 73.14295,-24.87673 104.45898,-4.9414 3.57778,2.27765 6.66719,4.14062 6.86524,4.14062 0.19804,0 0.35937,-9.24622 0.35937,-20.54883 v -20.55078 l -7.96289,-3.72461 c -15.13568,-7.08025 -23.41181,-9.11912 -41.07422,-10.11914 -20.03486,-1.13418 -33.40767,0.89486 -48.83789,7.41211 -19.89384,8.40255 -36.95474,21.66958 -49.85937,38.76953 -19.61828,25.99603 -23.74436,30.65385 -34.05078,38.44336 -43.37881,32.785115 -101.22243,24.516697 -134.00586,-19.15429 -28.87964,-38.47081 -42.24893,-50.01289 -69.74805,-60.2168 -14.55961,-5.4025 -41.59421,-7.32631 -57.82422,-4.11524 -29.62797,5.86184 -54.65495,22.93353 -75.48437,51.49219 -21.2182,29.09157 -34.40379,39.7254 -60.05469,48.429689 -12.88347,4.37178 -39.7513,4.37178 -52.63477,0 -25.65086,-8.704289 -38.83458,-19.338119 -60.05273,-48.429689 -20.82947,-28.55866 -45.858345,-45.63035 -75.486326,-51.49219 -4.057492,-0.80276 -8.789656,-1.28391 -13.833984,-1.4707 z m -400.050785,2.66602 c -0.3335,0.0814 -0.67074,0.15464 -1.0039,0.24023 -0.0315,0.0411 -0.0678,0.09 -0.0977,0.12891 0.12192,0.0866 0.24565,0.17066 0.36719,0.25781 0.24339,-0.21102 0.49177,-0.41479 0.73437,-0.62695 z m 43.86524,4.65039 c -0.95868,0.41818 -1.94714,0.85963 -2.86524,1.24804 0.69604,0.42562 1.40602,0.82208 2.12305,1.20118 0.24851,-0.81608 0.49322,-1.63328 0.74219,-2.44922 z"
       transform="matrix(0.26458333,0,0,0.26458333,-2.3938711,127.55329)"
       clip-path="url(#clipPath116070)" />
    <ellipse
       style="fill:#cc79a7;fill-opacity:1;stroke:#000000;stroke-width:1.5;stroke-linejoin:round;stroke-miterlimit:4;stroke-dasharray:none;stroke-opacity:1;paint-order:markers fill stroke"
       id="path1597"
       cx="34.74424"
       cy="105.11163"
       rx="24.166054"
       ry="6.6660538" />
    <rect
       style="fill:#cc79a7;fill-opacity:1;stroke:#cc79a7;stroke-width:1.24893;stroke-linejoin:round;stroke-opacity:1;paint-order:markers fill stroke"
       id="rect2014"
       width="48.751072"
       height="13.751072"
       x="10.370181"
       y="90.46788" />
    <ellipse
       style="fill:#cc79a7;fill-opacity:1;stroke:#000000;stroke-width:1.5;stroke-linejoin:round;stroke-miterlimit:4;stroke-dasharray:none;stroke-opacity:1;paint-order:markers fill stroke"
       id="path1597-3"
       cx="34.671551"
       cy="89.856331"
       rx="24.166054"
       ry="6.6660538" />
    <path
       style="fill:none;stroke:#000000;stroke-width:1.5;stroke-linecap:butt;stroke-linejoin:miter;stroke-miterlimit:4;stroke-dasharray:none;stroke-opacity:1"
       d="m 10.370181,90.46788 v 13.75107"
       id="path3526" />
    <path
       style="fill:none;stroke:#000000;stroke-width:1.5;stroke-linecap:butt;stroke-linejoin:miter;stroke-miterlimit:4;stroke-dasharray:none;stroke-opacity:1"
       d="m 59.121253,90.46788 v 13.75107"
       id="path3641" />
    <ellipse
       style="fill:#cc79a7;fill-opacity:1;stroke:#000000;stroke-width:1.5;stroke-linejoin:round;stroke-miterlimit:4;stroke-dasharray:none;stroke-opacity:1;paint-order:markers fill stroke"
       id="path1597-5"
       cx="34.373665"
       cy="136.92116"
       rx="15.558701"
       ry="6.82302" />
    <rect
       style="fill:none;fill-opacity:1;stroke:#009e73;stroke-width:1.5;stroke-linejoin:round;stroke-miterlimit:4;stroke-dasharray:none;stroke-opacity:1;paint-order:markers fill stroke"
       id="rect4118"
       width="35.125027"
       height="43.910809"
       x="16.846539"
       y="116.32307" />
    <path
       style="fill:#000000;stroke:#000000;stroke-width:2.99557;stroke-linecap:butt;stroke-linejoin:miter;stroke-miterlimit:4;stroke-dasharray:none;stroke-opacity:1"
       d="m 34.07877,111.75966 -0.132379,25.1295"
       id="path3756" />
    <ellipse
       style="fill:#e69f00;fill-opacity:1;stroke:#000000;stroke-width:1.5;stroke-linejoin:round;stroke-miterlimit:4;stroke-dasharray:none;stroke-opacity:1;paint-order:markers fill stroke"
       id="path5205"
       cx="109.58313"
       cy="186.46783"
       rx="16.772902"
       ry="6.7728968" />
    <rect
       style="fill:#e69f00;fill-opacity:1;stroke:#000000;stroke-width:2.04098;stroke-linejoin:round;stroke-miterlimit:4;stroke-dasharray:none;stroke-opacity:0;paint-order:markers fill stroke"
       id="rect5425"
       width="32.959015"
       height="72.066498"
       x="93.31675"
       y="114.34708" />
    <ellipse
       style="fill:#e69f00;fill-opacity:1;stroke:#000000;stroke-width:1.5;stroke-linejoin:round;stroke-miterlimit:4;stroke-dasharray:none;stroke-opacity:1;paint-order:markers fill stroke"
       id="path5205-6"
       cx="109.93173"
       cy="114.59644"
       rx="16.772902"
       ry="6.7728982" />
    <path
       style="fill:none;stroke:#000000;stroke-width:1.83961;stroke-linecap:butt;stroke-linejoin:miter;stroke-miterlimit:4;stroke-dasharray:none;stroke-opacity:1"
       d="m 126.45608,114.16676 v 72.67616"
       id="path5611-2" />
    <path
       style="fill:none;stroke:#000000;stroke-width:1.84148;stroke-linecap:butt;stroke-linejoin:miter;stroke-miterlimit:4;stroke-dasharray:none;stroke-opacity:1"
       d="m 93.136424,114.16676 v 72.82426"
       id="path5941" />
    <text
       xml:space="preserve"
       style="font-style:normal;font-weight:normal;font-size:10.5833px;line-height:1.25;font-family:sans-serif;fill:#000000;fill-opacity:1;stroke:none;stroke-width:0.264583"
       x="-23.619583"
       y="149.85992"
       id="text8093"><tspan
         sodipodi:role="line"
         id="tspan8091"
         style="font-weight:bold;stroke-width:0.264583"
         x="-23.619583"
         y="149.85992">CO2 In</tspan></text>
    <path
       style="fill:#666666;stroke:#000000;stroke-width:2;stroke-linecap:butt;stroke-linejoin:miter;stroke-miterlimit:4;stroke-dasharray:none;stroke-opacity:1;marker-end:url(#marker15752)"
       d="m -24.382149,153.83226 c 43.816468,0 48.868414,0.17252 48.868414,0.17252"
       id="path15631"
       sodipodi:nodetypes="cc" />
    <path
       style="fill:none;stroke:#000000;stroke-width:2;stroke-linecap:butt;stroke-linejoin:miter;stroke-miterlimit:4;stroke-dasharray:none;stroke-opacity:1;marker-end:url(#marker15752-9)"
       d="M 42.740706,155.07981 C 60.898376,120.58047 74.28195,103.95889 84.095606,97.362008 105.343,83.079209 109.9077,116.79443 109.9077,116.79443"
       id="path15631-2"
       sodipodi:nodetypes="csc" />
    <path
       style="fill:#a05a2c;stroke:#784421;stroke-width:1;stroke-linecap:butt;stroke-linejoin:miter;stroke-miterlimit:4;stroke-dasharray:none;stroke-opacity:1"
       d="M 56.287487,165.42239 H 91.391513"
       id="path17784" />
    <path
       style="fill:none;stroke:#784421;stroke-width:1;stroke-linecap:butt;stroke-linejoin:miter;stroke-miterlimit:4;stroke-dasharray:none;stroke-opacity:1"
       d="m 69.545422,165.87716 -5.160226,5.51654"
       id="path17967" />
    <path
       style="fill:none;stroke:#784421;stroke-width:1;stroke-linecap:butt;stroke-linejoin:miter;stroke-miterlimit:4;stroke-dasharray:none;stroke-opacity:1"
       d="m 76.649507,165.53134 -5.160225,5.51654"
       id="path17967-0" />
    <path
       style="fill:none;stroke:#784421;stroke-width:1;stroke-linecap:butt;stroke-linejoin:miter;stroke-miterlimit:4;stroke-dasharray:none;stroke-opacity:1"
       d="m 84.157812,165.50425 -5.160226,5.51654"
       id="path17967-9" />
    <path
       style="fill:none;stroke:#784421;stroke-width:1;stroke-linecap:butt;stroke-linejoin:miter;stroke-miterlimit:4;stroke-dasharray:none;stroke-opacity:1"
       d="m 91.391513,165.42239 -5.160226,5.51654"
       id="path17967-3" />
    <path
       style="fill:none;stroke:#784421;stroke-width:1;stroke-linecap:butt;stroke-linejoin:miter;stroke-miterlimit:4;stroke-dasharray:none;stroke-opacity:1"
       d="m 62.112205,165.8358 -5.160225,5.51654"
       id="path17967-6" />
    <path
       style="fill:none;stroke:#784421;stroke-width:1;stroke-linecap:butt;stroke-linejoin:miter;stroke-miterlimit:4;stroke-dasharray:none;stroke-opacity:1"
       d="m 128.61602,165.37316 h 35.10402"
       id="path17784-2" />
    <path
       style="fill:none;stroke:#784421;stroke-width:1;stroke-linecap:butt;stroke-linejoin:miter;stroke-miterlimit:4;stroke-dasharray:none;stroke-opacity:1"
       d="m 141.87395,165.82793 -5.16022,5.51654"
       id="path17967-61" />
    <path
       style="fill:none;stroke:#784421;stroke-width:1;stroke-linecap:butt;stroke-linejoin:miter;stroke-miterlimit:4;stroke-dasharray:none;stroke-opacity:1"
       d="m 148.97804,165.48211 -5.16023,5.51654"
       id="path17967-0-8" />
    <path
       style="fill:none;stroke:#784421;stroke-width:1;stroke-linecap:butt;stroke-linejoin:miter;stroke-miterlimit:4;stroke-dasharray:none;stroke-opacity:1"
       d="m 156.48634,165.45502 -5.16022,5.51654"
       id="path17967-9-7" />
    <path
       style="fill:none;stroke:#784421;stroke-width:1;stroke-linecap:butt;stroke-linejoin:miter;stroke-miterlimit:4;stroke-dasharray:none;stroke-opacity:1"
       d="m 163.72004,165.37316 -5.16022,5.51654"
       id="path17967-3-9" />
    <path
       style="fill:none;stroke:#784421;stroke-width:1;stroke-linecap:butt;stroke-linejoin:miter;stroke-miterlimit:4;stroke-dasharray:none;stroke-opacity:1"
       d="m 134.44074,165.78657 -5.16023,5.51654"
       id="path17967-6-2" />
    <text
       xml:space="preserve"
       style="font-style:normal;font-weight:normal;font-size:10.5833px;line-height:1.25;font-family:sans-serif;fill:#784421;fill-opacity:1;stroke:none;stroke-width:0.265;stroke-miterlimit:4;stroke-dasharray:none"
       x="18.053059"
       y="186.51039"
       id="text20315"><tspan
         sodipodi:role="line"
         id="tspan20313"
         style="font-weight:bold;fill:#784421;fill-opacity:1;stroke-width:0.265;stroke-miterlimit:4;stroke-dasharray:none"
         x="18.053059"
         y="186.51039">Ocean Floor</tspan></text>
    <text
       xml:space="preserve"
       style="font-style:normal;font-weight:normal;font-size:10.5833px;line-height:1.25;font-family:sans-serif;fill:#000000;fill-opacity:1;stroke:none;stroke-width:0.264583"
       x="1.1899776"
       y="172.97157"
       id="text37695"><tspan
         sodipodi:role="line"
         id="tspan37693"
         style="font-weight:bold;fill:#009e73;fill-opacity:1;stroke-width:0.264583"
         x="1.1899776"
         y="172.97157">Piston</tspan></text>
    <text
       xml:space="preserve"
       style="font-style:normal;font-weight:normal;font-size:10.5833px;line-height:1.25;font-family:sans-serif;fill:#e69f00;fill-opacity:1;stroke:none;stroke-width:0.264583"
       x="128.93173"
       y="142.13226"
       id="text52087"><tspan
         sodipodi:role="line"
         style="font-weight:bold;fill:#e69f00;fill-opacity:1;stroke-width:0.264583"
         x="128.93173"
         y="142.13226"
         id="tspan52091">Pipe</tspan></text>
    <text
       xml:space="preserve"
       style="font-style:normal;font-weight:normal;font-size:10.5833px;line-height:1.25;font-family:sans-serif;fill:#cc79a7;fill-opacity:1;stroke:none;stroke-width:0.264583"
       x="46.440571"
       y="79.595512"
       id="text65334"><tspan
         sodipodi:role="line"
         id="tspan65332"
         style="font-weight:bold;fill:#cc79a7;fill-opacity:1;stroke-width:0.264583"
         x="46.440571"
         y="79.595512">WEC</tspan></text>
    <text
       xml:space="preserve"
       style="font-style:normal;font-weight:normal;font-size:10.5833px;line-height:1.25;font-family:sans-serif;fill:#000000;fill-opacity:1;stroke:none;stroke-width:0.264583"
       x="56.432724"
       y="212.79398"
       id="text73729"><tspan
         sodipodi:role="line"
         id="tspan73727"
         style="font-weight:bold;stroke-width:0.264583"
         x="56.432724"
         y="212.79398">Sequestered CO2</tspan></text>
    <path
       style="fill:none;stroke:#000000;stroke-width:2;stroke-linecap:butt;stroke-linejoin:miter;stroke-miterlimit:4;stroke-dasharray:none;stroke-opacity:1;marker-end:url(#marker15752)"
       d="M 110.02902,185.45499 V 201.1523"
       id="path75629" />
    <text
       xml:space="preserve"
       style="font-style:normal;font-weight:normal;font-size:10.5833px;line-height:1.25;font-family:sans-serif;text-align:center;text-anchor:middle;fill:#000000;fill-opacity:1;stroke:none;stroke-width:0.264583"
       x="-49.032089"
       y="142.11017"
       id="text78342"
       transform="rotate(-50.187393)"><tspan
         sodipodi:role="line"
         style="font-weight:bold;text-align:center;text-anchor:middle;stroke-width:0.264583"
         x="-49.032089"
         y="142.11017"
         id="tspan78344">Pressurized</tspan><tspan
         sodipodi:role="line"
         style="font-weight:bold;text-align:center;text-anchor:middle;stroke-width:0.264583"
         x="-49.032089"
         y="155.33929"
         id="tspan85020">C02</tspan></text>
  </g>
</svg>
