<?xml version="1.0" encoding="UTF-8" standalone="no"?>
<!-- Created with Inkscape (http://www.inkscape.org/) -->

<svg
   width="433.32355mm"
   height="30.607546mm"
   viewBox="0 0 433.32355 30.607546"
   version="1.1"
   id="svg5"
   inkscape:version="1.1.2 (0a00cf5339, 2022-02-04)"
   sodipodi:docname="frac.svg"
   xmlns:inkscape="http://www.inkscape.org/namespaces/inkscape"
   xmlns:sodipodi="http://sodipodi.sourceforge.net/DTD/sodipodi-0.dtd"
   xmlns="http://www.w3.org/2000/svg"
   xmlns:svg="http://www.w3.org/2000/svg">
  <sodipodi:namedview
     id="namedview7"
     pagecolor="#ffffff"
     bordercolor="#666666"
     borderopacity="1.0"
     inkscape:pageshadow="2"
     inkscape:pageopacity="0.0"
     inkscape:pagecheckerboard="0"
     inkscape:document-units="mm"
     showgrid="false"
     inkscape:zoom="0.69041105"
     inkscape:cx="793.73005"
     inkscape:cy="-68.075387"
     inkscape:window-width="1920"
     inkscape:window-height="947"
     inkscape:window-x="0"
     inkscape:window-y="32"
     inkscape:window-maximized="1"
     inkscape:current-layer="layer1" />
  <defs
     id="defs2" />
  <g
     inkscape:label="Layer 1"
     inkscape:groupmode="layer"
     id="layer1"
     transform="translate(104.73127,-166.03285)">
    <path
       style="fill:#000000;stroke-width:0.264583"
       d="m 282.75319,195.28487 c 1.48487,-1.44818 1.62698,-1.80751 0.9733,-2.46119 -0.6418,-0.6418 -1.82475,-0.37694 -1.64873,0.36915 0.0441,0.18676 -0.0801,0.39792 -0.27588,0.46925 -0.66955,0.24392 -0.19105,-0.827 0.55632,-1.24508 0.65185,-0.36465 0.79978,-0.36473 1.45333,-7.9e-4 0.45844,0.25532 0.75824,0.66782 0.81041,1.11512 0.067,0.57428 -0.12065,0.8507 -0.98213,1.44686 -0.58573,0.40533 -1.0695,0.82626 -1.075,0.9354 -0.0212,0.41633 1.55787,0.18689 1.82084,-0.26458 0.23055,-0.39585 0.27085,-0.35746 0.27773,0.26458 0.008,0.71708 -0.0159,0.72759 -1.6456,0.72678 l -1.65365,-7.9e-4 1.38906,-1.35473 z m 7.08337,0.14979 c -2.3814,-3.12218 -2.26472,-8.46328 0.2499,-11.43845 0.96632,-1.14329 1.19349,-0.88777 0.27792,0.3126 -2.04007,2.67466 -1.95657,8.69636 0.15788,11.38443 0.29567,0.37588 0.42399,0.68342 0.28519,0.68342 -0.13882,0 -0.5757,-0.4239 -0.97089,-0.942 z m 34.65712,0.67741 c 0.11911,-0.21828 0.43291,-0.70969 0.69728,-1.09202 0.2644,-0.38234 0.66159,-1.38962 0.88267,-2.23841 0.79291,-3.04422 0.38741,-6.17041 -1.08397,-8.35689 -0.76716,-1.13998 -0.8151,-1.28946 -0.30691,-0.95703 0.3312,0.21667 1.01893,1.20365 1.52826,2.19329 0.8655,1.68173 0.92482,1.9567 0.9076,4.20697 -0.0212,2.77217 -0.65223,4.60405 -2.02605,5.88226 -0.44852,0.41729 -0.718,0.58011 -0.59888,0.36183 z m -66.60055,-0.14356 c -0.085,-0.085 0.23376,-1.657 0.70839,-3.49329 0.77409,-2.99476 0.96168,-3.42913 1.82089,-4.21655 2.35747,-2.16044 4.6205,0.0759 3.09758,3.06103 -0.28265,0.55406 -0.81425,1.20415 -1.18131,1.44467 -0.77861,0.51016 -2.03205,0.57291 -2.48076,0.1242 -0.41211,-0.41212 -0.44913,-0.35023 -0.88767,1.48409 -0.34753,1.45365 -0.69882,1.97414 -1.07712,1.59585 z m 3.74512,-3.2883 c 0.99044,-0.53008 1.836,-4.11282 1.13586,-4.81295 -0.42823,-0.42823 -1.58361,-0.0409 -2.06373,0.69183 -0.66614,1.01667 -1.19197,3.32159 -0.88751,3.89044 0.28553,0.53352 1.06455,0.63251 1.81538,0.23068 z m 4.86389,2.26128 c -0.46149,-0.20562 -0.9675,-0.61384 -1.12448,-0.90716 -0.44183,-0.8256 -0.3361,-2.4661 0.21749,-3.37394 1.03986,-1.70528 3.65495,-2.67827 4.93831,-1.83739 0.65297,0.42784 0.71779,0.42615 1.24061,-0.0324 0.48506,-0.42536 0.53216,-0.43013 0.39002,-0.0395 -0.0889,0.24432 -0.2414,0.8694 -0.3389,1.38906 -0.19741,1.05239 -0.64752,1.28452 -0.64752,0.33394 0,-1.01328 -0.62635,-1.61161 -1.68711,-1.61161 -1.69924,0 -3.3106,1.64981 -3.53227,3.61656 -0.17698,1.57014 0.49099,2.31011 2.08534,2.31011 0.94025,0 1.2465,-0.15475 2.11667,-1.06948 1.02973,-1.08247 1.23327,-1.15122 0.75332,-0.25445 -0.72893,1.36205 -2.97836,2.1148 -4.41148,1.47626 z m 8.20428,-0.0388 c -1.84171,-0.92847 -1.82592,-3.25379 0.0342,-5.03893 3.32166,-3.18776 7.52097,-0.1111 4.77041,3.49507 -1.22475,1.60575 -3.3361,2.28418 -4.80459,1.54386 z m 3.26311,-0.68002 c 0.68252,-0.56645 1.41036,-2.28778 1.40618,-3.32557 -0.005,-1.16126 -0.16436,-1.4646 -1.00367,-1.90677 -1.7353,-0.91423 -4.01937,1.2202 -4.01937,3.75606 0,1.16102 0.40841,1.80927 1.32292,2.09982 0.49342,0.15676 1.77273,-0.19098 2.29394,-0.62354 z m 40.59949,-1.18787 c -0.9207,-0.64488 -1.35454,-1.97213 -1.34803,-4.12411 0.008,-2.56842 0.63506,-3.99687 1.94509,-4.42923 1.13146,-0.37342 2.06925,-0.0167 2.89703,1.10196 0.82166,1.11039 0.94596,4.49117 0.22505,6.1209 -0.7534,1.70318 -2.36429,2.27945 -3.71914,1.33048 z m 2.53211,-0.533 c 0.58989,-0.90028 0.81767,-5.15113 0.35172,-6.56305 -0.62265,-1.88664 -2.6928,-1.72984 -3.06084,0.23184 -0.0939,0.50073 -0.12925,2.03718 -0.0785,3.41433 0.0739,2.0046 0.1928,2.61487 0.59632,3.06033 0.69845,0.77106 1.63213,0.70994 2.1913,-0.14345 z m -179.83388,0.45368 c 0,-0.1354 0.26789,-0.28422 0.59531,-0.33072 0.42625,-0.0605 0.61909,-0.29119 0.67904,-0.81216 l 0.0837,-0.7276 h -1.72173 c -0.94697,0 -1.78251,-0.0983 -1.85677,-0.21845 -0.0742,-0.12015 0.84146,-1.69773 2.03491,-3.50573 l 2.16992,-3.28728 0.0743,3.24115 0.0743,3.24114 h 0.80122 c 0.46677,0 0.73296,0.11045 0.6377,0.26459 -0.0899,0.14552 -0.45416,0.26458 -0.80937,0.26458 -0.38114,0 -0.64584,0.15379 -0.64584,0.37523 0,0.72962 0.32729,1.21227 0.82206,1.21227 0.27547,0 0.50085,0.11906 0.50085,0.26458 0,0.14925 -0.74965,0.26459 -1.71979,0.26459 -0.94588,0 -1.71979,-0.11078 -1.71979,-0.24619 z m 1.32292,-4.7809 c 0,-1.30968 -0.0481,-2.38125 -0.10682,-2.38125 -0.0878,0 -2.20471,3.22771 -2.90661,4.43177 -0.1454,0.24941 0.20138,0.33073 1.41031,0.33073 h 1.60312 z m 150.24463,4.58183 c 0.16661,-0.31765 1.13527,-1.32968 2.15262,-2.24896 1.01732,-0.91927 1.85087,-1.75024 1.85227,-1.84659 0.003,-0.0964 -0.48112,-0.2569 -1.0723,-0.35678 -0.83408,-0.14091 -1.1897,-0.0777 -1.5875,0.28234 -0.61569,0.5572 -0.67387,0.20068 -0.10076,-0.61755 0.47276,-0.67495 1.48622,-0.77332 1.96938,-0.19116 0.4359,0.52522 1.03071,0.50168 1.67132,-0.0661 0.50498,-0.44763 0.51252,-0.4443 0.22709,0.10027 -0.1624,0.30981 -1.13221,1.33819 -2.15517,2.28528 -1.02295,0.9471 -1.85991,1.78765 -1.85991,1.8679 0,0.0802 0.54242,0.22724 1.20539,0.32666 1.03661,0.15545 1.29593,0.0957 1.85208,-0.42679 0.78859,-0.74084 0.85326,-0.32011 0.0983,0.63965 -0.62071,0.78911 -1.82888,0.94269 -2.36204,0.30026 -0.4359,-0.52522 -1.03071,-0.50168 -1.67132,0.0661 -0.50586,0.44839 -0.51279,0.44478 -0.21947,-0.11453 z m 10.48975,-1.67141 c 0.0979,-0.15842 1.84962,-0.26458 4.36562,-0.26458 2.516,0 4.26773,0.10616 4.36563,0.26458 0.10657,0.17245 -1.41357,0.26458 -4.36563,0.26458 -2.95206,0 -4.4722,-0.0921 -4.36562,-0.26458 z m 0,-2.64583 c 0.21272,-0.34418 8.06638,-0.34418 8.59896,0 0.26471,0.17107 -1.12821,0.25783 -4.1828,0.26053 -2.98675,0.003 -4.52282,-0.088 -4.41616,-0.26053 z M 35.963078,187.22895 c 0,-0.0981 0.535781,-0.6499 1.190625,-1.22632 1.244201,-1.09519 1.522558,-1.9857 0.806461,-2.58001 -0.564391,-0.4684 -1.323102,-0.22523 -1.420175,0.45518 -0.104114,0.72974 -0.576911,0.78936 -0.576911,0.0728 0,-1.03577 1.65009,-1.39798 2.656409,-0.58312 0.852014,0.68992 0.535315,1.63576 -0.865934,2.58617 l -1.129017,0.76576 0.914363,0.087 c 0.649399,0.0618 1.01962,-0.0532 1.277591,-0.39688 0.337572,-0.44967 0.357085,-0.43713 0.276262,0.17761 -0.0799,0.6077 -0.210608,0.66791 -1.60832,0.74081 -0.836745,0.0436 -1.521354,-8.7e-4 -1.521354,-0.0989 z m 172.772922,0 c 0,-0.0981 0.53578,-0.6499 1.19063,-1.22632 1.2442,-1.09519 1.52254,-1.9857 0.80645,-2.58001 -0.56438,-0.4684 -1.3231,-0.22523 -1.42018,0.45518 -0.10409,0.72974 -0.5769,0.78936 -0.5769,0.0728 0,-1.03577 1.6501,-1.39798 2.65642,-0.58312 0.85201,0.68992 0.5353,1.63576 -0.86596,2.58617 l -1.129,0.76576 0.91437,0.087 c 0.6494,0.0618 1.0196,-0.0532 1.27757,-0.39688 0.33758,-0.44967 0.35711,-0.43713 0.27628,0.17761 -0.0799,0.6077 -0.21061,0.66791 -1.60832,0.74081 -0.83675,0.0436 -1.52136,-8.7e-4 -1.52136,-0.0989 z m 42.60877,-0.0142 c -0.006,-0.16408 0.17645,-0.45377 0.40537,-0.64376 0.74104,-0.61502 1.41742,-2.27734 1.71995,-4.22705 0.45183,-2.91221 -0.003,-5.27528 -1.42076,-7.39856 l -0.7956,-1.19063 0.96678,0.91242 c 2.73746,2.58356 2.83586,8.75265 0.18632,11.68322 -0.57816,0.63948 -1.05608,1.02845 -1.06206,0.86436 z M 44.342155,186.25634 c -1.268712,-1.69485 -1.592919,-2.64293 -1.711786,-5.00572 -0.14854,-2.95264 0.397473,-4.81846 1.867588,-6.38187 0.57612,-0.61268 0.856292,-0.81631 0.622604,-0.45251 -1.579298,2.45862 -2.112036,4.84781 -1.740392,7.80521 0.23857,1.89845 0.598377,2.88038 1.478069,4.03372 0.361225,0.47359 0.537707,0.86107 0.392186,0.86107 -0.145521,0 -0.554241,-0.38695 -0.908269,-0.8599 z m 34.889139,-0.0542 c 1.003239,-1.31532 1.446369,-3.07163 1.446369,-5.7326 0,-2.54331 -0.632892,-4.79251 -1.593046,-5.66143 -0.287991,-0.26063 -0.523621,-0.59524 -0.523621,-0.74357 0,-0.53679 1.391264,1.04421 2.055731,2.33608 0.888984,1.72839 1.113776,4.92647 0.495718,7.05252 -0.429475,1.47734 -1.803067,3.66311 -2.301989,3.66311 -0.152014,0 0.03736,-0.41135 0.420838,-0.91411 z m 18.253181,-0.0279 c -2.381406,-3.12219 -2.264722,-8.46329 0.249889,-11.43846 0.966313,-1.14329 1.193483,-0.88777 0.277923,0.3126 -2.040067,2.67467 -1.956559,8.69637 0.15787,11.38443 0.29567,0.37588 0.42401,0.68342 0.2852,0.68342 -0.13881,0 -0.57571,-0.4239 -0.970882,-0.94199 z m 34.657115,0.67741 c 0.11912,-0.21828 0.4329,-0.7097 0.69729,-1.09203 0.26438,-0.38234 0.66157,-1.38962 0.88266,-2.2384 0.79292,-3.04423 0.38742,-6.17042 -1.08397,-8.3569 -0.76715,-1.13998 -0.81509,-1.28945 -0.30692,-0.95703 0.33122,0.21667 1.01894,1.20365 1.52827,2.19329 0.86551,1.68174 0.92483,1.9567 0.90758,4.20697 -0.0212,2.77217 -0.6522,4.60405 -2.02604,5.88226 -0.44851,0.41729 -0.718,0.58012 -0.59887,0.36184 z m 84.93456,-0.67741 c -2.38141,-3.12219 -2.26473,-8.46329 0.2499,-11.43846 0.96631,-1.14329 1.19348,-0.88777 0.27791,0.3126 -2.04007,2.67467 -1.95656,8.69637 0.15788,11.38443 0.29567,0.37588 0.424,0.68342 0.28519,0.68342 -0.13882,0 -0.5757,-0.4239 -0.97088,-0.94199 z m -263.573897,-0.2674 c -1.841714,-0.92848 -1.82594,-3.25379 0.03418,-5.03893 3.321653,-3.18777 7.520964,-0.11111 4.770398,3.49507 -1.224762,1.60574 -3.336092,2.28418 -4.80458,1.54386 z m 3.263096,-0.68002 c 0.682525,-0.56645 1.41037,-2.28778 1.406176,-3.32557 -0.0047,-1.16126 -0.164359,-1.46461 -1.003655,-1.90678 -1.735317,-0.91422 -4.019378,1.22021 -4.019378,3.75607 0,1.16101 0.408408,1.80927 1.322917,2.09982 0.493421,0.15676 1.772735,-0.19098 2.29394,-0.62354 z m 28.484707,0.71883 c -3.044741,-1.35663 -0.790538,-6.37005 2.864184,-6.37005 4.1833611,0 3.2028205,5.88003 -1.09908,6.59089 -0.55122,0.0911 -1.265658,0.002 -1.765104,-0.22084 z m 3.327667,-1.00221 c 1.5095621,-1.47587 1.7676367,-3.84688 0.519666,-4.77434 -1.410635,-1.04835 -3.547785,0.25597 -4.192517,2.55872 -0.791752,2.82786 1.582005,4.25981 3.672851,2.21562 z m 32.387372,0.99178 c -2.461853,-1.07073 -1.813904,-4.67308 1.076642,-5.98573 1.34111,-0.60902 2.242945,-0.63475 3.025918,-0.0863 0.503984,0.35301 0.66738,0.36354 1.026414,0.0661 0.385109,-0.31899 0.407937,-0.24984 0.23263,0.70464 -0.236916,1.28992 -0.682371,1.85496 -0.682371,0.86556 0,-1.4682 -1.337149,-2.04415 -3.01879,-1.30028 -0.868093,0.384 -1.325708,0.80599 -1.726965,1.59252 -1.151483,2.25709 -0.455179,4.00157 1.597213,4.00157 0.880906,0 1.253866,-0.16907 1.984375,-0.89958 0.955056,-0.95506 1.073441,-0.97799 0.613653,-0.11886 -0.291263,0.54423 -2.169197,1.53969 -2.88907,1.53144 -0.218281,-0.002 -0.776123,-0.16949 -1.239649,-0.37109 z m 8.205795,0.0104 c -3.04474,-1.35663 -0.790538,-6.37005 2.864184,-6.37005 4.183361,0 3.202821,5.88003 -1.099079,6.59089 -0.55122,0.0911 -1.265659,0.002 -1.765105,-0.22084 z m 3.327668,-1.00221 c 1.509561,-1.47587 1.767636,-3.84688 0.519665,-4.77434 -1.410634,-1.04835 -3.547785,0.25597 -4.192516,2.55872 -0.791753,2.82786 1.582005,4.25981 3.672851,2.21562 z m 161.243162,1.00221 c -0.46149,-0.20562 -0.9675,-0.61384 -1.12448,-0.90716 -0.44183,-0.8256 -0.3361,-2.4661 0.21749,-3.37394 1.03986,-1.70528 3.65495,-2.67828 4.93832,-1.83739 0.65296,0.42784 0.71778,0.42614 1.2406,-0.0324 0.48506,-0.42536 0.53216,-0.43014 0.39002,-0.0395 -0.0889,0.24433 -0.2414,0.86941 -0.3389,1.38907 -0.19741,1.05239 -0.64752,1.28451 -0.64752,0.33394 0,-1.01328 -0.62635,-1.61161 -1.68711,-1.61161 -1.69924,0 -3.3106,1.64981 -3.53227,3.61656 -0.17698,1.57014 0.49099,2.3101 2.08534,2.3101 0.94025,0 1.24651,-0.15474 2.11667,-1.06947 1.02973,-1.08248 1.23327,-1.15122 0.75332,-0.25445 -0.72893,1.36205 -2.97836,2.1148 -4.41148,1.47626 z m 8.20428,-0.0388 c -1.84171,-0.92848 -1.82592,-3.25379 0.0342,-5.03893 3.32166,-3.18777 7.52097,-0.11111 4.77042,3.49507 -1.22476,1.60574 -3.33611,2.28418 -4.8046,1.54386 z m 3.26311,-0.68002 c 0.68252,-0.56645 1.41036,-2.28778 1.40618,-3.32557 -0.005,-1.16126 -0.16436,-1.46461 -1.00367,-1.90677 -1.7353,-0.91423 -4.01937,1.2202 -4.01937,3.75606 0,1.16101 0.40841,1.80927 1.32292,2.09982 0.49342,0.15676 1.77273,-0.19098 2.29394,-0.62354 z m -268.590364,0.58023 c 0.413054,-0.16749 0.671766,-0.78525 1.128739,-2.6952 0.708983,-2.96325 0.712888,-3.06698 0.121319,-3.22157 -0.254661,-0.0666 0.619855,-0.13481 1.943367,-0.15169 2.020158,-0.0258 2.47667,0.047 2.844271,0.45316 0.459928,0.50821 0.563576,1.29829 0.235395,1.79433 -0.387403,0.58556 -1.914147,1.1614 -3.079229,1.1614 -1.151271,0 -1.200592,0.0334 -1.466871,0.99219 -0.376928,1.35725 -0.351576,1.59574 0.184526,1.73584 0.254661,0.0666 -0.191823,0.12727 -0.992188,0.13492 -1.006927,0.01 -1.29013,-0.053 -0.919329,-0.20338 z m 5.032396,-3.57359 c 1.219163,-1.21916 0.706274,-2.26098 -1.113078,-2.26098 -1.10494,0 -1.133271,0.0225 -1.415354,1.12448 -0.158314,0.61846 -0.33776,1.27331 -0.39877,1.45521 -0.07785,0.23212 0.245174,0.33073 1.083424,0.33073 0.915294,0 1.346084,-0.15174 1.843778,-0.64944 z m 3.47449,3.64023 c 0.830747,-0.16172 1.001697,-0.48052 1.634048,-3.04736 0.708618,-2.87641 0.709494,-2.85385 -0.110873,-2.85385 -0.931545,0 -1.614948,0.40898 -2.111151,1.26342 -0.230274,0.39653 -0.351062,0.50153 -0.268419,0.23335 0.08264,-0.26818 0.222191,-0.77419 0.310107,-1.12448 0.157647,-0.62811 0.203134,-0.63687 3.306165,-0.63687 h 3.146316 l -0.004,0.7276 c -0.0021,0.40018 -0.119467,0.9062 -0.260532,1.12448 -0.194797,0.30143 -0.257456,0.19128 -0.260533,-0.45798 -0.0032,-0.68208 -0.133511,-0.88735 -0.644583,-1.01562 -1.336418,-0.33542 -1.542841,-0.10822 -2.180627,2.40007 -0.758463,2.9829 -0.760238,3.24274 -0.0231,3.38472 0.327422,0.0631 -0.238125,0.11466 -1.256771,0.11466 -1.018646,0 -1.592839,-0.0505 -1.275985,-0.11214 z m 23.024087,-0.0835 c 0.366909,-0.14776 0.67827,-0.60528 0.843878,-1.24 0.625253,-2.39639 1.088229,-4.26751 1.088229,-4.39807 0,-0.0775 -0.208359,-0.1953 -0.463021,-0.26185 -0.254661,-0.0666 0.565587,-0.13481 1.822773,-0.15169 1.879658,-0.0252 2.395826,0.0584 2.905085,0.47078 1.376749,1.11482 -0.461274,2.93685 -2.963489,2.9377 l -1.212197,4.1e-4 -0.273952,1.19718 c -0.232034,1.01399 -0.208489,1.23543 0.153861,1.44716 0.304522,0.17794 0.0084,0.24747 -1.027393,0.24126 -1.111441,-0.007 -1.317853,-0.064 -0.873774,-0.24288 z m 5.283814,-3.58476 c 0.485191,-0.66354 0.446554,-1.87565 -0.06606,-2.07236 -0.230183,-0.0883 -0.870144,-0.1606 -1.422136,-0.1606 -0.894442,0 -1.020217,0.083 -1.156197,0.76288 -0.08392,0.41959 -0.234985,1.09123 -0.335706,1.49253 l -0.183129,0.72964 1.405382,-0.13504 c 0.939099,-0.0902 1.522325,-0.29496 1.757841,-0.61705 z m 3.395168,3.62036 c 0.827837,-0.17677 0.891569,-0.33434 2.088068,-5.16247 l 0.189421,-0.76435 -1.138746,0.15181 c -0.643668,0.0858 -1.25377,0.34181 -1.403326,0.58884 -0.739765,1.2219 -0.913204,1.30133 -0.565357,0.25889 l 0.353153,-1.05833 3.199622,-0.0742 3.199625,-0.0742 -0.154408,1.0002 c -0.185621,1.20239 -0.344093,1.46401 -0.344093,0.56806 0,-0.35895 -0.142875,-0.79552 -0.3175,-0.97014 -0.401222,-0.40122 -1.708145,-0.41425 -1.952139,-0.0195 -0.35811,0.57944 -1.409033,5.12478 -1.224679,5.29686 0.102865,0.096 0.425151,0.23185 0.716193,0.30185 0.291041,0.07 -0.363802,0.12701 -1.455209,0.12667 -1.231767,-3.7e-4 -1.683332,-0.0649 -1.190625,-0.1701 z m -80.127511,-3.53822 c -0.0902,-1.05502 -0.244,-3.03548 -0.34171,-4.40102 -0.15019,-2.09873 -0.25278,-2.50243 -0.66323,-2.60977 -0.93113,-0.24349 -0.26633,-0.46337 1.2691,-0.41973 1.87638,0.0533 1.9969,0.088 1.14981,0.3304 -0.64129,0.18354 -0.65958,0.25333 -0.5997,2.28873 0.034,1.15468 0.13362,2.73872 0.22143,3.5201 l 0.15967,1.42069 1.6968,-2.9735 c 1.803999,-3.16136 2.020943,-3.93369 1.167631,-4.15684 -1.058881,-0.2769 -0.490074,-0.49928 1.124479,-0.43962 2.003636,0.074 2.099161,0.0998 1.256771,0.33881 l -0.661459,0.18769 0.0903,3.15937 c 0.04966,1.73766 0.181016,3.25502 0.291894,3.3719 0.266483,0.28092 3.775648,-5.90059 3.603848,-6.34829 -0.07314,-0.19059 -0.255772,-0.34652 -0.40586,-0.34652 -0.150088,0 -0.272887,-0.0941 -0.272887,-0.20908 0,-0.2205 2.319225,-0.20572 2.541141,0.0162 0.07113,0.0711 -0.147994,0.19894 -0.486953,0.28402 -0.459483,0.11532 -1.249083,1.25101 -3.103337,4.46354 -1.367877,2.36988 -2.524841,4.35848 -2.571033,4.41911 -0.235711,0.30941 -0.369643,-0.43709 -0.613151,-3.41753 -0.146735,-1.79597 -0.301714,-3.30032 -0.344398,-3.34301 -0.04269,-0.0427 -0.964922,1.46546 -2.049416,3.35143 -1.0845,1.88597 -2.04469,3.42952 -2.13375,3.4301 -0.0891,5.9e-4 -0.23577,-0.86214 -0.32599,-1.91717 z m 176.360915,1.5053 c -1.027626,-0.71978 -1.380308,-1.77741 -1.379866,-4.13799 5.29e-4,-2.73345 0.490096,-3.87114 1.892856,-4.3986 1.239366,-0.46603 2.210266,-0.0512 2.988178,1.27661 0.74599,1.27336 0.760304,5.01551 0.02394,6.2613 -0.80664,1.36471 -2.370137,1.80766 -3.525117,0.99868 z m 2.289371,-0.3463 c 0.610526,-0.61052 0.952539,-3.38022 0.693264,-5.61417 -0.143505,-1.23642 -0.32334,-1.6781 -0.852853,-2.09462 -0.85815,-0.67502 -1.016326,-0.66435 -1.802291,0.12162 -0.61159,0.61159 -0.649434,0.82074 -0.649434,3.58927 0,2.80629 0.215316,3.83322 0.899504,4.29006 0.506138,0.33796 1.200145,0.21951 1.71181,-0.29216 z m 51.069484,0.36245 c -1.02467,-0.5569 -1.42558,-1.79788 -1.42558,-4.41275 0,-1.91434 0.0919,-2.42011 0.55296,-3.04271 1.36247,-1.83988 3.46185,-1.70774 4.36198,0.27456 0.6063,1.33524 0.6831,4.53219 0.14009,5.83181 -0.67169,1.60758 -2.14572,2.15548 -3.62945,1.34909 z m 2.30372,-0.42422 c 0.40352,-0.44546 0.52243,-1.05573 0.59632,-3.06033 0.11699,-3.17432 -0.0767,-4.21167 -0.88545,-4.74157 -0.87136,-0.57093 -1.68693,-0.25303 -2.14141,0.83469 -0.43739,1.04682 -0.49385,4.56334 -0.0962,5.99496 0.4246,1.52885 1.60958,1.9848 2.52679,0.97225 z m 117.08392,0.38955 c -0.9207,-0.64488 -1.35453,-1.97212 -1.34803,-4.12411 0.008,-2.56841 0.63506,-3.99687 1.94509,-4.42922 1.13146,-0.37342 2.06925,-0.0167 2.89703,1.10195 0.82166,1.1104 0.94596,4.49117 0.22505,6.12091 -0.7534,1.70317 -2.36429,2.27945 -3.71914,1.33047 z m 2.53212,-0.533 c 0.58988,-0.90027 0.81766,-5.15113 0.35171,-6.56304 -0.62265,-1.88665 -2.6928,-1.72985 -3.06084,0.23183 -0.0939,0.50074 -0.12924,2.03719 -0.0785,3.41433 0.0739,2.0046 0.1928,2.61487 0.59632,3.06033 0.69845,0.77106 1.63214,0.70994 2.19131,-0.14345 z m -320.856812,0.43529 c 0.218281,-0.14107 0.590465,-0.25831 0.827074,-0.26054 0.332492,-0.003 0.647986,-0.87403 1.389063,-3.8344 0.527375,-2.1067 0.958863,-3.94389 0.958863,-4.08264 0,-0.13876 -0.26789,-0.30388 -0.595312,-0.36695 -0.327422,-0.0631 1.041797,-0.13087 3.042708,-0.15069 l 3.638021,-0.036 -0.0313,0.7276 c -0.01722,0.40018 -0.122195,1.08479 -0.23328,1.52135 -0.190281,0.74779 -0.203788,0.72918 -0.233281,-0.32142 -0.03972,-1.41503 -0.54837,-1.71455 -2.732905,-1.60928 l -1.631447,0.0786 -0.302231,1.19063 c -0.74558,2.93718 -0.781997,2.6463 0.330761,2.64178 1.199605,-0.005 1.549947,-0.20134 1.893318,-1.06175 0.194175,-0.48656 0.265288,-0.53158 0.277763,-0.17584 0.02405,0.68541 -0.539301,2.81454 -0.784847,2.96629 -0.114051,0.0705 -0.145606,-0.108 -0.07012,-0.39665 0.103106,-0.39428 -0.04679,-0.59479 -0.602644,-0.80613 -1.290778,-0.49075 -1.769454,-0.24816 -2.102747,1.06563 -0.727771,2.86879 -0.726474,2.64583 -0.0154,2.64583 0.357987,0 0.724469,0.11907 0.814407,0.26459 0.104073,0.16839 -0.635707,0.26311 -2.034906,0.26053 -1.517115,-0.003 -2.075434,-0.0835 -1.801553,-0.26053 z m 34.977918,-0.0529 c -0.438904,-0.43891 -0.3976,-2.15362 0.07937,-3.29519 0.218281,-0.52242 0.396875,-1.18217 0.396875,-1.46611 0,-0.82698 -0.865651,-0.46439 -1.388653,0.58166 -0.254434,0.5089 -0.462793,0.73296 -0.46302,0.49793 -7.94e-4,-0.81648 1.066792,-1.85693 1.816224,-1.77009 0.883835,0.10242 1.019514,0.85883 0.452522,2.52285 -0.778386,2.28445 -0.453273,3.24754 0.975246,2.889 1.193263,-0.29949 2.248046,-3.07774 1.624669,-4.2793 -0.39374,-0.75894 -0.294063,-1.18408 0.277612,-1.18408 1.106979,0 0.334377,3.70072 -1.118556,5.35781 -0.470572,0.53669 -2.16799,0.62982 -2.652294,0.14552 z m 48.365835,0.0529 c 0.218281,-0.14107 0.590465,-0.25831 0.827074,-0.26054 0.332491,-0.003 0.647986,-0.87403 1.389062,-3.8344 0.527376,-2.1067 0.958864,-3.95217 0.958864,-4.10105 0,-0.14887 -0.245153,-0.27068 -0.544783,-0.27068 -0.29963,0 -0.471196,-0.11906 -0.381259,-0.26458 0.204134,-0.3303 3.870828,-0.33601 5.284581,-0.008 1.759763,0.40799 2.274584,1.8864 1.153287,3.3119 -0.780248,0.99192 -2.020049,1.45883 -3.873725,1.45883 h -1.553895 l -0.340421,1.52135 c -0.18723,0.83675 -0.39751,1.67018 -0.467286,1.85208 -0.07604,0.19822 0.09024,0.33073 0.414994,0.33073 0.298024,0 0.615445,0.11907 0.705382,0.26459 0.103756,0.16788 -0.591614,0.2631 -1.902614,0.26053 -1.431689,-0.003 -1.944269,-0.0828 -1.669261,-0.26053 z m 7.153336,-4.90347 c 0.274814,-0.2487 0.630515,-0.84868 0.790448,-1.33328 0.529688,-1.60497 -0.34943,-2.36333 -2.529698,-2.18219 l -1.017762,0.0846 -0.472329,1.85208 c -0.259781,1.01865 -0.475046,1.95792 -0.478369,2.08727 -0.01058,0.41213 3.172881,-0.0244 3.70771,-0.50844 z m 29.094581,5.00441 c 0,-0.13511 0.955715,-1.19536 2.123811,-2.35611 1.961195,-1.94887 2.07768,-2.12363 1.521354,-2.28252 -1.047337,-0.29913 -1.74208,-0.23802 -2.171057,0.19096 -0.339376,0.33938 -0.415774,0.34691 -0.415774,0.041 0,-1.00244 1.740064,-1.62624 2.38125,-0.85366 0.443606,0.53451 1.237879,0.50184 1.554509,-0.0639 0.141838,-0.25345 0.34689,-0.37181 0.455676,-0.26303 0.108783,0.10879 -0.775256,1.13617 -1.964531,2.28307 -1.189276,1.1469 -2.162321,2.15094 -2.162321,2.23119 0,0.0803 0.557292,0.22948 1.238425,0.33163 1.130067,0.16946 1.292114,0.12329 1.852083,-0.52771 0.772716,-0.89834 0.831305,-0.23822 0.06529,0.73561 -0.620718,0.78912 -1.828877,0.9427 -2.362047,0.30026 -0.430199,-0.51835 -1.031407,-0.50325 -1.632813,0.041 -0.26612,0.24084 -0.483854,0.32734 -0.483854,0.19223 z m 42.219942,-0.25213 c -0.551277,-0.55128 -0.524282,-1.30267 0.113393,-3.15611 0.653314,-1.89889 0.653587,-1.98437 0.0063,-1.98437 -0.334669,0 -0.711365,0.3571 -1.046639,0.99219 -0.288089,0.5457 -0.528611,0.87312 -0.534501,0.7276 -0.0059,-0.14552 0.225227,-0.65153 0.513585,-1.12448 0.356315,-0.5844 0.727078,-0.85989 1.15724,-0.85989 1.166726,0 1.31399,0.5572 0.69011,2.61119 -0.699127,2.30172 -0.548476,3.00821 0.617115,2.89399 1.414798,-0.13865 2.827419,-3.01389 2.073698,-4.22079 -0.454745,-0.72816 -0.375338,-1.33712 0.161092,-1.23539 1.019701,0.19338 0.438586,3.38667 -0.907408,4.98629 -0.754395,0.89655 -2.137407,1.07636 -2.844006,0.36977 z m 11.1872,-0.0295 c 0.16659,-0.31765 1.13525,-1.32968 2.1526,-2.24895 1.01734,-0.91928 1.85087,-1.75025 1.85228,-1.8466 0.001,-0.0964 -0.48112,-0.2569 -1.0723,-0.35677 -0.83407,-0.14092 -1.1897,-0.0777 -1.5875,0.28233 -0.6157,0.5572 -0.67387,0.20069 -0.10076,-0.61755 0.47276,-0.67494 1.48623,-0.77332 1.96938,-0.19116 0.43589,0.52523 1.03072,0.50168 1.67131,-0.0661 0.50499,-0.44764 0.51254,-0.44431 0.2271,0.10027 -0.16239,0.3098 -1.13222,1.33818 -2.15517,2.28528 -1.02295,0.9471 -1.85991,1.78765 -1.85991,1.86789 0,0.0803 0.54242,0.22724 1.20538,0.32666 1.03663,0.15545 1.29593,0.0957 1.85209,-0.42678 0.78859,-0.74085 0.85327,-0.32011 0.0983,0.63964 -0.62072,0.78912 -1.82888,0.9427 -2.36205,0.30026 -0.4359,-0.52522 -1.03072,-0.50168 -1.67131,0.0661 -0.50586,0.4484 -0.51279,0.44478 -0.21947,-0.11453 z m 47.79599,0.22655 c 0.14552,-0.1425 0.4953,-0.30062 0.77729,-0.35137 0.41871,-0.0754 0.66484,-0.69851 1.3426,-3.39912 0.45645,-1.81876 0.91261,-3.63426 1.01369,-4.03445 0.16498,-0.65312 0.11397,-0.7276 -0.49832,-0.7276 -0.43714,0 -0.61617,-0.1067 -0.4985,-0.2971 0.30425,-0.49228 5.64351,-0.16938 6.50216,0.39322 0.97199,0.63688 1.37021,1.75838 1.22901,3.46116 -0.14558,1.75554 -1.0765,3.27615 -2.63971,4.31181 -1.02472,0.67891 -1.32476,0.7359 -4.29722,0.8162 -2.08778,0.0564 -3.10386,-0.003 -2.931,-0.17275 z m 6.50931,-0.90615 c 1.16537,-0.77218 2.10163,-2.68723 2.28103,-4.66569 0.13014,-1.43514 0.0829,-1.63219 -0.54154,-2.25658 -0.58173,-0.58173 -0.91861,-0.68412 -2.25083,-0.68412 h -1.5667 l -0.95887,3.83036 c -0.52737,2.10669 -0.95886,3.95216 -0.95886,4.10104 0,0.15369 0.66925,0.27068 1.54837,0.27068 1.16342,0 1.77189,-0.1481 2.4474,-0.59569 z m 28.94486,0.86028 c 0.0899,-0.14552 0.39002,-0.26459 0.66688,-0.26459 0.54033,0 0.49366,0.12848 1.69984,-4.67815 0.82047,-3.26956 0.82995,-3.52393 0.13121,-3.52393 -0.29964,0 -0.4712,-0.11906 -0.38127,-0.26458 0.21276,-0.34423 4.2164,-0.33983 5.46148,0.006 0.52993,0.1472 1.11532,0.45054 1.30085,0.67408 0.54314,0.65443 0.40114,1.90184 -0.30207,2.65366 -0.95875,1.02498 -1.5207,1.24962 -3.53351,1.4125 l -1.83579,0.14855 -0.34192,1.32291 c -0.44474,1.72057 -0.43789,2.24896 0.0291,2.24896 0.20969,0 0.45485,0.11906 0.54478,0.26459 0.10316,0.16692 -0.53163,0.26458 -1.71979,0.26458 -1.18817,0 -1.82295,-0.0977 -1.71979,-0.26458 z m 7.16367,-5.05904 c 0.36187,-0.36187 0.72602,-1.07731 0.80918,-1.58987 0.21637,-1.33338 -0.35735,-1.81776 -2.15308,-1.81776 -1.54355,0 -1.42568,-0.12581 -1.98331,2.11667 -0.16286,0.65484 -0.3614,1.41422 -0.4412,1.68751 -0.13332,0.45642 -0.0124,0.4873 1.48268,0.37914 1.28566,-0.093 1.76606,-0.25603 2.28573,-0.77569 z m 28.95195,5.15998 c 0,-0.13511 0.9557,-1.19536 2.12381,-2.35611 1.9612,-1.94887 2.0777,-2.12363 1.52136,-2.28252 -1.04733,-0.29913 -1.74207,-0.23802 -2.17107,0.19096 -0.33935,0.33938 -0.41576,0.34691 -0.41576,0.041 0,-1.00244 1.74006,-1.62624 2.38125,-0.85366 0.4436,0.53451 1.23788,0.50184 1.5545,-0.0639 0.14185,-0.25345 0.3469,-0.37181 0.45567,-0.26303 0.1088,0.10879 -0.77523,1.13617 -1.96451,2.28307 -1.1893,1.1469 -2.16233,2.15094 -2.16233,2.23119 0,0.0803 0.55729,0.22948 1.23844,0.33163 1.13006,0.16946 1.29209,0.12329 1.85208,-0.52771 0.77271,-0.89834 0.83129,-0.23822 0.0653,0.73561 -0.62071,0.78912 -1.82888,0.9427 -2.36204,0.30026 -0.43019,-0.51835 -1.0314,-0.50325 -1.63282,0.041 -0.26612,0.24084 -0.48385,0.32734 -0.48385,0.19223 z m -306.387509,-1.95303 c 0,-0.1657 1.631597,-0.26458 4.365625,-0.26458 2.734027,0 4.365625,0.0989 4.365625,0.26458 0,0.1657 -1.631598,0.26459 -4.365625,0.26459 -2.734028,0 -4.365625,-0.0989 -4.365625,-0.26459 z m 83.3437529,0 c 0,-0.1657 1.6315982,-0.26458 4.3656251,-0.26458 2.734027,0 4.3656252,0.0989 4.3656252,0.26458 0,0.1657 -1.6315982,0.26459 -4.3656252,0.26459 -2.7340269,0 -4.3656251,-0.0989 -4.3656251,-0.26459 z m 60.8541681,0 c 0,-0.1657 1.631598,-0.26458 4.365625,-0.26458 2.734027,0 4.365625,0.0989 4.365625,0.26458 0,0.1657 -1.631598,0.26459 -4.365625,0.26459 -2.734027,0 -4.365625,-0.0989 -4.365625,-0.26459 z m 53.313548,0 c 0.0979,-0.15842 1.84962,-0.26458 4.36562,-0.26458 2.516,0 4.26772,0.10616 4.36563,0.26458 0.10658,0.17246 -1.41357,0.26459 -4.36563,0.26459 -2.95205,0 -4.4722,-0.0921 -4.36562,-0.26459 z m 58.60521,0 c 0,-0.1657 1.6316,-0.26458 4.36562,-0.26458 2.73402,0 4.36563,0.0989 4.36563,0.26458 0,0.1657 -1.63161,0.26459 -4.36563,0.26459 -2.73402,0 -4.36562,-0.0989 -4.36562,-0.26459 z m 60.98646,0 c 0.0979,-0.15842 1.84962,-0.26458 4.36562,-0.26458 2.51601,0 4.26773,0.10616 4.36563,0.26458 0.10657,0.17246 -1.41356,0.26459 -4.36563,0.26459 -2.95206,0 -4.4722,-0.0921 -4.36562,-0.26459 z m -92.73646,-1.32291 c 0,-0.16501 1.5434,-0.26459 4.10104,-0.26459 2.55764,0 4.10104,0.0996 4.10104,0.26459 0,0.16501 -1.5434,0.26458 -4.10104,0.26458 -2.55764,0 -4.10104,-0.0996 -4.10104,-0.26458 z m 119.59167,0 c 0,-0.17508 12.03854,-0.26459 35.58646,-0.26459 23.54791,0 35.58646,0.0895 35.58646,0.26459 0,0.17507 -12.03855,0.26458 -35.58646,0.26458 -23.54792,0 -35.58646,-0.0895 -35.58646,-0.26458 z m -343.826057,-1.32292 c 0.09755,-0.15783 1.805528,-0.26458 4.233333,-0.26458 2.427804,0 4.135787,0.10675 4.233334,0.26458 0.106508,0.17233 -1.369471,0.26458 -4.233334,0.26458 -2.863862,0 -4.339842,-0.0923 -4.233333,-0.26458 z m 83.3437526,0 c 0.097547,-0.15783 1.80553,-0.26458 4.2333334,-0.26458 2.4278035,0 4.1357869,0.10675 4.2333335,0.26458 0.106508,0.17233 -1.3694702,0.26458 -4.2333335,0.26458 -2.8638633,0 -4.3398415,-0.0923 -4.2333334,-0.26458 z m 60.8541684,0 c 0.09755,-0.15783 1.80553,-0.26458 4.233333,-0.26458 2.427804,0 4.135787,0.10675 4.233334,0.26458 0.106508,0.17233 -1.369471,0.26458 -4.233334,0.26458 -2.863863,0 -4.339841,-0.0923 -4.233333,-0.26458 z m 53.313546,0 c 0.53258,-0.34418 8.38624,-0.34418 8.59896,0 0.10664,0.17255 -1.42942,0.26317 -4.41616,0.26053 -3.0546,-0.003 -4.44751,-0.0895 -4.1828,-0.26053 z m 58.60521,0 c 0.0976,-0.15783 1.80552,-0.26458 4.23333,-0.26458 2.42782,0 4.13579,0.10675 4.23334,0.26458 0.10652,0.17233 -1.36949,0.26458 -4.23334,0.26458 -2.86385,0 -4.33985,-0.0923 -4.23333,-0.26458 z m 60.85417,0 c 0.21272,-0.34418 8.06638,-0.34418 8.59896,0 0.26471,0.17107 -1.12821,0.25783 -4.1828,0.26053 -2.98675,0.003 -4.52281,-0.088 -4.41616,-0.26053 z m -70.77605,-1.00213 c 0,-0.11461 0.58862,-0.78814 1.30803,-1.49674 1.70145,-1.67586 2.0828,-2.55631 1.49545,-3.45269 -0.29102,-0.44418 -0.67694,-0.66302 -1.16917,-0.66302 -0.92583,0 -1.47018,0.48617 -1.07606,0.96107 0.29665,0.35745 0.11147,0.89101 -0.30927,0.89101 -0.43789,0 -0.26649,-1.22506 0.23487,-1.67878 0.67903,-0.61451 2.30002,-0.56444 2.95574,0.0913 0.93705,0.93704 0.68511,1.78578 -0.99219,3.34253 l -1.52135,1.41203 1.24362,0.004 c 0.90818,0.003 1.31635,-0.12092 1.51331,-0.45905 0.30419,-0.52229 0.35724,-0.22749 0.11901,0.66146 -0.14584,0.54425 -0.31573,0.59531 -1.98075,0.59531 -1.00169,0 -1.82124,-0.0938 -1.82124,-0.20838 z m -20.55876,-3.5351 c 0.51785,-1.1874 1.47986,-3.62204 1.63106,-4.12787 0.15035,-0.50298 0.0781,-0.59532 -0.46566,-0.59532 -0.35398,0 -0.95732,0.24677 -1.34075,0.54837 -0.98576,0.77541 -0.8706,0.1738 0.12751,-0.66605 0.78742,-0.66258 0.94566,-0.69051 3.50573,-0.61884 2.71815,0.0761 3.72214,0.52965 1.52144,0.68731 l -1.15965,0.0831 0.13059,2.49661 c 0.1034,1.9767 0.0567,2.49661 -0.22437,2.49661 -0.69082,0 -0.78925,-2.05422 -0.20917,-4.36545 0.14849,-0.59163 0.085,-0.66164 -0.59959,-0.66164 -0.74217,0 -0.78568,0.075 -1.41775,2.44379 -0.50406,1.88906 -0.76595,2.46571 -1.15371,2.54038 -0.34213,0.0659 -0.45204,-0.0171 -0.34568,-0.26098 z m 148.88621,0.10546 c 0.003,-0.10914 0.2386,-1.09141 0.52464,-2.18281 0.28604,-1.09141 0.52213,-2.261 0.52464,-2.59909 0.007,-0.94189 -0.81298,-0.61463 -1.20869,0.48242 -0.22384,0.6206 -0.34065,0.74911 -0.35415,0.3896 -0.0514,-1.36959 1.49837,-2.2395 2.14501,-1.20404 0.31324,0.50157 0.32631,0.50157 0.96398,0 0.85307,-0.67103 2.32114,-0.67103 2.74018,0 0.31324,0.50157 0.32631,0.50157 0.96399,0 0.72503,-0.57032 2.1559,-0.67388 2.63879,-0.19098 0.45929,0.45929 0.39153,1.50119 -0.21166,3.25438 -0.65331,1.89889 -0.65358,1.98437 -0.006,1.98437 0.3311,0 0.72233,-0.36388 1.06674,-0.99218 0.36875,-0.67267 0.48853,-0.77918 0.37193,-0.33073 -0.24395,0.93808 -0.88755,1.5875 -1.57324,1.5875 -1.12371,0 -1.25272,-0.56457 -0.62026,-2.71434 0.65471,-2.22528 0.56059,-2.84191 -0.43379,-2.84191 -0.80383,0 -1.85425,1.03219 -2.09743,2.06106 -0.56579,2.39366 -0.98973,3.49519 -1.34519,3.49519 -0.48636,0 -0.49586,0.14035 0.17049,-2.51653 0.62879,-2.50703 0.55319,-3.03972 -0.43143,-3.03972 -0.89916,0 -1.87952,1.01392 -2.20903,2.28469 -0.14584,0.56243 -0.39682,1.52861 -0.55774,2.14708 -0.17603,0.67649 -0.44664,1.12448 -0.67927,1.12448 -0.21267,0 -0.38465,-0.0893 -0.38216,-0.19844 z m -387.089956,-2.41338 c 0,-0.6451 0.333061,-0.88641 0.915154,-0.66304 0.612094,0.23488 0.387186,1.00919 -0.322545,1.11045 -0.44529,0.0635 -0.592609,-0.0477 -0.592609,-0.44741 z m 391.318766,-5.55625 c 0,-0.6451 0.33306,-0.88641 0.91514,-0.66304 0.61211,0.23488 0.38719,1.00919 -0.32253,1.11045 -0.44529,0.0635 -0.59261,-0.0477 -0.59261,-0.44741 z"
       id="path1699"
       inkscape:export-filename="/home/degoede/SEA/CASHEW/pubs/figs/eq screenshots/power.png"
       inkscape:export-xdpi="96"
       inkscape:export-ydpi="96" />
  </g>
</svg>
